<?xml version="1.0" standalone="no"?><!DOCTYPE svg PUBLIC "-//W3C//DTD SVG 1.1//EN" "http://www.w3.org/Graphics/SVG/1.1/DTD/svg11.dtd"><svg t="1711265767716" class="icon" viewBox="0 0 1024 1024" version="1.1" xmlns="http://www.w3.org/2000/svg" p-id="5791" xmlns:xlink="http://www.w3.org/1999/xlink" width="200" height="200"><path d="M717.5 816.6l-5.3 5.3c-61.3 61.3-160.7 61.3-222 0L337.6 669.3c-61.3-61.3-61.3-160.7 0-222l5.3-5.3c61.3-61.3 160.7-61.3 222 0l152.7 152.7c61.2 61.2 61.2 160.6-0.1 221.9z" fill="#4B70F9" p-id="5792"></path><path d="M687.1 786.2l-5.3 5.3c-61.3 61.3-160.7 61.3-222 0l30.4 30.4c61.3 61.3 160.7 61.3 222 0l5.3-5.3c61.3-61.3 61.3-160.7 0-222l-30.4-30.4c61.3 61.3 61.3 160.7 0 222z" fill="#1A4CB3" p-id="5793"></path><path d="M224.143 555.815l113.702-113.702 129.187 129.188-113.701 113.701z" fill="#00DDF4" p-id="5794"></path><path d="M337.707 442.201L451.408 328.5l129.187 129.187-113.701 113.702z" fill="#00DDF4" p-id="5795"></path><path d="M335.26 447.86l8.203-8.203L470.74 566.935l-8.203 8.202z" fill="#12357D" p-id="5796"></path><path d="M437 541.4c-6.8 6.8-17.9 6.8-24.7 0l-27.6-27.6c-6.8-6.8-6.8-17.9 0-24.7 6.8-6.8 17.9-6.8 24.7 0l27.6 27.6c6.8 6.8 6.8 17.9 0 24.7z" fill="#4B70F9" p-id="5797"></path><path d="M426.2 530.5c-6.8 6.8-17.9 6.8-24.7 0l10.8 10.8c6.8 6.8 17.9 6.8 24.7 0 6.8-6.8 6.8-17.9 0-24.7l-10.8-10.8c6.8 6.8 6.8 17.9 0 24.7z" fill="#12357D" p-id="5798"></path><path d="M336.3 447.7c-0.6-0.8-15.5-19.1-22.6-45.7-6.7-24.8-7.6-61.5 26.2-95.3 31.3-31.3 59.7-27.9 87.2-24.6 29.3 3.5 59.6 7.2 97.7-30.9 22.4-22.4 33.2-54.2 32.2-94.4-0.8-30.5-8.5-54.5-8.5-54.8l9.5-3.1c0.3 1 8.2 25.5 9 57.3 1.2 42.6-11 77.9-35.1 102-41.5 41.5-75.8 37.4-106 33.8-27.4-3.3-51.1-6.1-79 21.7-24.3 24.3-32.3 53-23.7 85.3 6.5 24.5 20.7 42.1 20.8 42.3l-7.7 6.4z" fill="#12357D" p-id="5799"></path></svg>