<?xml version="1.0" standalone="no"?><!DOCTYPE svg PUBLIC "-//W3C//DTD SVG 1.1//EN" "http://www.w3.org/Graphics/SVG/1.1/DTD/svg11.dtd"><svg t="1711267247644" class="icon" viewBox="0 0 1024 1024" version="1.1" xmlns="http://www.w3.org/2000/svg" p-id="6821" xmlns:xlink="http://www.w3.org/1999/xlink" width="200" height="200"><path d="M889 949.5H133c-38.66 0-70-31.34-70-70v-756c0-38.66 31.34-70 70-70h756c38.66 0 70 31.34 70 70v756c0 38.66-31.34 70-70 70z" fill="#326ee7" p-id="6822" data-spm-anchor-id="a313x.search_index.0.i1.49883a81Q3c9uX" class=""></path><path d="M522.97 714.75c-64.75 0-116.5-21.31-155.12-63.94-38.66-42.56-57.97-100.25-57.97-172.94s19.31-130.38 57.97-172.94C406.47 262.31 458.22 241 522.97 241c49.88 0 92.25 13.44 127.25 40.31s54.66 62.31 59.03 106.25h-62.53c-2.5-28.94-15-52-37.62-69.06s-51.12-25.62-85.5-25.62c-46.38 0-83.25 16-110.25 47.94-27.12 32-40.66 77.69-40.66 137.06 0 59.19 13.44 104.81 40.28 136.88 26.88 32.06 63.38 48.12 109.38 48.12 35.88 0 64.88-8.75 86.88-26.25 22.12-17.5 34.62-42.5 37.5-75h62.53c-4.38 48.75-23.53 86.44-57.53 113.12-33.89 26.69-76.89 40-128.76 40z" fill="#00b7e3" p-id="6823" data-spm-anchor-id="a313x.search_index.0.i3.49883a81Q3c9uX" class="selected"></path></svg>